<svg width="61" height="60" viewBox="0 0 61 60" fill="none" xmlns="http://www.w3.org/2000/svg">
<path d="M19.2498 29.9999L14.2398 36.6799C13.5398 37.6131 13.1882 38.7616 13.2457 39.9267C13.3032 41.0919 13.7663 42.2002 14.5548 43.0599L24.0148 53.3799C24.9598 54.4124 26.2948 54.9999 27.6973 54.9999H39.2498C45.2498 54.9999 49.2498 49.9999 49.2498 44.9999V23.5724C49.2498 17.8574 41.7498 17.8574 41.7498 23.5724V24.9999" stroke="white" stroke-width="3" stroke-linecap="round" stroke-linejoin="round"/>
<path d="M41.7498 25V20.715C41.7498 15 34.2498 15 34.2498 20.715V25V18.75C34.2498 13.035 26.7498 13.035 26.7498 18.75V25V8.7475C26.7492 7.75337 26.3538 6.80019 25.6506 6.09747C24.9474 5.39474 23.9939 5 22.9998 5C22.0053 5 21.0514 5.39509 20.3482 6.09835C19.6449 6.80161 19.2498 7.75544 19.2498 8.75V37.5" stroke="white" stroke-width="3" stroke-linecap="round" stroke-linejoin="round"/>
</svg>
