<svg width="60" height="60" viewBox="0 0 60 60" fill="none" xmlns="http://www.w3.org/2000/svg">
<path d="M44.375 37.5C44.375 37.9973 44.1775 38.4742 43.8258 38.8258C43.4742 39.1775 42.9973 39.375 42.5 39.375H30C29.5027 39.375 29.0258 39.1775 28.6742 38.8258C28.3225 38.4742 28.125 37.9973 28.125 37.5C28.125 37.0027 28.3225 36.5258 28.6742 36.1742C29.0258 35.8225 29.5027 35.625 30 35.625H42.5C42.9973 35.625 43.4742 35.8225 43.8258 36.1742C44.1775 36.5258 44.375 37.0027 44.375 37.5ZM18.7 23.56C18.5118 23.3954 18.2926 23.2701 18.0553 23.1914C17.818 23.1127 17.5673 23.0823 17.3181 23.102C17.0689 23.1216 16.8261 23.1909 16.604 23.3058C16.3819 23.4207 16.1851 23.5788 16.025 23.7708C15.865 23.9629 15.7449 24.185 15.672 24.4242C15.5991 24.6633 15.5747 24.9146 15.6003 25.1633C15.6259 25.412 15.701 25.6531 15.8212 25.8724C15.9413 26.0916 16.1041 26.2846 16.3 26.44L16.885 26.9275C18.5325 28.3025 19.61 29.2025 20.3 29.9675C20.955 30.6925 21.0175 31.035 21.0175 31.25C21.0175 31.465 20.955 31.805 20.3 32.5325C19.6075 33.2975 18.5325 34.2 16.885 35.5725L16.3 36.06C15.9316 36.3823 15.7038 36.8359 15.6654 37.3239C15.6269 37.8118 15.7808 38.2955 16.0942 38.6715C16.4075 39.0476 16.8555 39.2862 17.3424 39.3363C17.8293 39.3865 18.3166 39.2442 18.7 38.94L19.3925 38.365C20.905 37.105 22.1925 36.0325 23.0825 35.045C24.0275 33.995 24.7675 32.7925 24.7675 31.25C24.7675 29.7075 24.0275 28.5025 23.0825 27.455C22.1925 26.4675 20.905 25.395 19.3925 24.135L18.7 23.56Z" fill="#EF4918"/>
<path fill-rule="evenodd" clip-rule="evenodd" d="M29.8575 3.125H30.1425C35.915 3.125 40.4375 3.125 43.9675 3.6C47.5775 4.085 50.4275 5.1 52.665 7.335C54.9025 9.5725 55.915 12.4225 56.4 16.035C56.875 19.5625 56.875 24.085 56.875 29.8575V30.1425C56.875 35.915 56.875 40.4375 56.4 43.9675C55.915 47.5775 54.9 50.4275 52.665 52.665C50.4275 54.9025 47.5775 55.915 43.965 56.4C40.4375 56.875 35.915 56.875 30.1425 56.875H29.8575C24.085 56.875 19.5625 56.875 16.0325 56.4C12.4225 55.915 9.5725 54.9 7.335 52.665C5.0975 50.4275 4.085 47.5775 3.6 43.965C3.125 40.4375 3.125 35.915 3.125 30.1425V29.8575C3.125 24.085 3.125 19.5625 3.6 16.0325C4.085 12.4225 5.1 9.5725 7.335 7.335C9.5725 5.0975 12.4225 4.085 16.035 3.6C19.5625 3.125 24.085 3.125 29.8575 3.125ZM16.5325 7.315C13.3375 7.745 11.41 8.565 9.9875 9.9875C8.5625 11.4125 7.745 13.3375 7.315 16.535C6.88 19.785 6.875 24.055 6.875 30C6.875 35.945 6.88 40.215 7.315 43.465C7.745 46.6625 8.565 48.59 9.9875 50.015C11.4125 51.4375 13.3375 52.255 16.535 52.685C19.785 53.12 24.055 53.125 30 53.125C35.945 53.125 40.215 53.12 43.465 52.685C46.6625 52.255 48.59 51.435 50.015 50.0125C51.4375 48.5875 52.255 46.6625 52.685 43.465C53.12 40.215 53.125 35.945 53.125 30C53.125 24.055 53.12 19.785 52.685 16.535C52.255 13.3375 51.435 11.41 50.0125 9.985C48.5875 8.5625 46.6625 7.745 43.465 7.315C40.215 6.88 35.945 6.875 30 6.875C24.055 6.875 19.7825 6.88 16.5325 7.315Z" fill="#EF4918"/>
</svg>
