<svg width="60" height="60" viewBox="0 0 60 60" fill="none" xmlns="http://www.w3.org/2000/svg">
<path fill-rule="evenodd" clip-rule="evenodd" d="M30 3.12499C25.43 3.12499 21.6525 3.52749 18.745 4.01749L18.41 4.07499C15.885 4.49749 13.785 4.84999 12.1425 6.86999C11.0925 8.16749 10.75 9.56999 10.6725 11.1325L9.4425 11.5425C8.285 11.9275 7.2675 12.2675 6.465 12.6425C5.595 13.0475 4.7975 13.5675 4.1875 14.415C3.5775 15.26 3.335 16.1825 3.225 17.135C3.125 18.0175 3.125 19.085 3.125 20.3075V20.67C3.125 21.675 3.125 22.5625 3.2 23.305C3.28 24.1075 3.4575 24.89 3.9 25.645C4.3475 26.4025 4.9425 26.9375 5.6075 27.3975C6.22 27.8225 6.995 28.255 7.875 28.7425L14.475 32.41C15.825 35.0625 17.6775 37.4275 20.225 39.135C22.4425 40.625 25.105 41.56 28.2575 41.8075C28.1698 42.0278 28.1249 42.2628 28.125 42.5V46.875H24.55C23.5385 46.875 22.5583 47.2255 21.7762 47.8668C20.994 48.5081 20.4582 49.4007 20.26 50.3925L19.7125 53.125H15C14.5027 53.125 14.0258 53.3225 13.6742 53.6742C13.3225 54.0258 13.125 54.5027 13.125 55C13.125 55.4973 13.3225 55.9742 13.6742 56.3258C14.0258 56.6775 14.5027 56.875 15 56.875H45C45.4973 56.875 45.9742 56.6775 46.3258 56.3258C46.6775 55.9742 46.875 55.4973 46.875 55C46.875 54.5027 46.6775 54.0258 46.3258 53.6742C45.9742 53.3225 45.4973 53.125 45 53.125H40.2875L39.74 50.3925C39.5418 49.4007 39.006 48.5081 38.2238 47.8668C37.4417 47.2255 36.4615 46.875 35.45 46.875H31.875V42.5C31.8751 42.2628 31.8302 42.0278 31.7425 41.8075C34.895 41.5575 37.5575 40.625 39.775 39.1375C42.325 37.4275 44.175 35.0625 45.525 32.41L52.125 28.7425C53.005 28.255 53.78 27.8225 54.3925 27.3975C55.055 26.9375 55.6525 26.4025 56.0975 25.6475C56.5425 24.89 56.7225 24.1075 56.8 23.305C56.875 22.5625 56.875 21.675 56.875 20.67V20.3075C56.875 19.0875 56.875 18.0175 56.775 17.135C56.665 16.1825 56.425 15.26 55.8125 14.415C55.2025 13.5675 54.405 13.0475 53.5375 12.64C52.73 12.265 51.715 11.9275 50.5575 11.5425L49.3275 11.1325C49.2525 9.56749 48.91 8.16749 47.8575 6.86999C46.2175 4.84749 44.1175 4.49499 41.5925 4.07499L41.255 4.01749C37.5347 3.40762 33.77 3.10908 30 3.12499ZM36.4625 53.125L36.0625 51.1275C36.0342 50.9859 35.9577 50.8584 35.846 50.7668C35.7344 50.6752 35.5944 50.6251 35.45 50.625H24.55C24.4056 50.6251 24.2656 50.6752 24.154 50.7668C24.0423 50.8584 23.9658 50.9859 23.9375 51.1275L23.5375 53.125H36.4625ZM10.72 15.07L10.755 15.0575C10.935 18.8575 11.3625 23.0575 12.4325 26.9825L9.7675 25.505C8.795 24.9625 8.185 24.6225 7.745 24.3175C7.34 24.035 7.2075 23.8675 7.135 23.7425C7.06 23.6175 6.98 23.4225 6.93 22.9325C6.877 22.152 6.85865 21.3696 6.875 20.5875V20.405C6.875 19.0575 6.8775 18.205 6.95 17.56C7.02 16.965 7.13 16.7425 7.23 16.6075C7.3275 16.47 7.5025 16.295 8.045 16.0425C8.635 15.7675 9.445 15.4975 10.72 15.07ZM49.245 15.055C49.0675 18.855 48.6375 23.055 47.57 26.98L50.2325 25.5025C51.205 24.96 51.815 24.62 52.255 24.315C52.66 24.0325 52.7925 23.865 52.865 23.74C52.94 23.615 53.02 23.42 53.07 22.93C53.1225 22.395 53.125 21.6975 53.125 20.585V20.4025C53.125 19.055 53.1225 18.2025 53.05 17.5575C52.98 16.9625 52.87 16.74 52.77 16.605C52.6725 16.4675 52.4975 16.2925 51.955 16.04C51.365 15.765 50.555 15.4925 49.28 15.065L49.245 15.055ZM19.37 7.71499C22.8838 7.14009 26.4395 6.85911 30 6.87499C34.35 6.87499 37.9175 7.25749 40.63 7.71499C43.6475 8.22499 44.28 8.41499 44.9475 9.23499C45.6025 10.04 45.665 10.805 45.53 14.1925C45.305 19.8375 44.56 25.9325 42.255 30.5675C41.115 32.8525 39.625 34.7225 37.6875 36.0225C35.76 37.315 33.2725 38.125 30 38.125C26.7275 38.125 24.2425 37.315 22.315 36.0225C20.375 34.7225 18.885 32.8525 17.7475 30.565C15.44 25.9325 14.6975 19.84 14.4725 14.19C14.3375 10.805 14.3975 10.04 15.055 9.23499C15.72 8.41499 16.3525 8.22499 19.37 7.71499Z" fill="#EF4918"/>
</svg>
