<svg width="60" height="60" viewBox="0 0 60 60" fill="none" xmlns="http://www.w3.org/2000/svg">
<path d="M8.98179 22.9307C10.2879 22.9307 10.9907 22.2021 10.9907 20.8714V14.9464C10.9907 12.3342 12.3964 11.0035 14.9079 11.0035H20.985C22.2911 11.0035 23.0186 10.275 23.0186 8.96889C23.0186 7.68853 22.29 6.95996 20.985 6.95996H14.8329C9.60964 6.95996 6.94714 9.54639 6.94714 14.7192V20.8725C6.94714 22.2032 7.67572 22.9307 8.98179 22.9307ZM51.0182 22.9307C52.3489 22.9307 53.0529 22.2021 53.0529 20.8714V14.7192C53.0529 9.54639 50.4407 6.95996 45.1671 6.95996H39.0396C37.7089 6.95996 36.9814 7.68853 36.9814 8.96889C36.9814 10.275 37.71 11.0035 39.0396 11.0035H45.1168C47.5779 11.0035 49.0093 12.3342 49.0093 14.9464V20.8714C49.0093 22.2032 49.7379 22.9307 51.0182 22.9307ZM28.92 27.8271V19.0639C28.92 18.4617 28.4432 17.9592 27.8154 17.9592H19.0768C18.4489 17.9592 17.9711 18.4607 17.9711 19.0639V27.8282C17.9711 28.4303 18.4489 28.9082 19.0768 28.9082H27.8154C28.4432 28.9082 28.92 28.4292 28.92 27.8271ZM33.2646 20.145H39.8432V26.7235H33.2646V20.145ZM37.9361 24.8164V22.0778H35.1986V24.8153L37.9361 24.8164ZM24.8271 24.8164V22.0778H22.065V24.8153L24.8271 24.8164ZM20.1557 33.2785H26.7354V39.8571H20.1568L20.1557 33.2785ZM41.7021 34.1314V31.395H38.9646V34.1325L41.7021 34.1314ZM34.1432 34.1314V31.395H31.4057V34.1325L34.1432 34.1314ZM24.8271 37.9242V35.1857H22.065V37.9221L24.8271 37.9242ZM37.935 37.9242V35.1857H35.1729V37.9221L37.935 37.9242ZM39.0396 53.041H45.1682C50.4407 53.041 53.0529 50.4289 53.0529 45.256V39.1285C53.0529 37.7967 52.3243 37.0692 51.0182 37.0692C49.7121 37.0692 49.0093 37.7978 49.0093 39.1285V45.0535C49.0093 47.6657 47.5779 48.9964 45.1168 48.9964H39.0396C37.7089 48.9964 36.9814 49.725 36.9814 51.031C36.9814 52.3114 37.71 53.041 39.0396 53.041ZM14.8329 53.04H20.985C22.2911 53.04 23.0186 52.3114 23.0186 51.031C23.0186 49.725 22.29 48.9975 20.985 48.9975H14.9079C12.3964 48.9975 10.9907 47.6657 10.9907 45.0546V39.1285C10.9907 37.7967 10.2621 37.0692 8.98179 37.0692C7.65107 37.0692 6.94714 37.7978 6.94714 39.1285V45.255C6.94714 50.4535 9.60964 53.04 14.8329 53.04ZM34.1432 41.715V38.9775H31.4057V41.715H34.1432ZM41.7021 41.715V38.9775H38.9646V41.715H41.7021ZM42.0289 27.8282V19.0639C42.0289 18.4617 41.5511 17.9592 40.9232 17.9592H32.1857C31.5579 17.9592 31.0811 18.4607 31.0811 19.0639V27.8282C31.0811 28.4303 31.5579 28.9082 32.1846 28.9082H40.9243C41.5521 28.9082 42.0289 28.4303 42.0289 27.8282ZM20.1557 20.1428H26.7354V26.7214H20.1568L20.1557 20.1428ZM28.92 40.935V32.1707C28.92 31.5685 28.4432 31.0917 27.8154 31.0917H19.0768C18.4489 31.0917 17.9711 31.5685 17.9711 32.1707V40.935C17.9711 41.5382 18.4489 42.0396 19.0768 42.0396H27.8154C28.4432 42.0396 28.92 41.5382 28.92 40.935Z" fill="#EF4918"/>
</svg>
