<svg width="60" height="60" viewBox="0 0 60 60" fill="none" xmlns="http://www.w3.org/2000/svg">
<path d="M25 25H35M25 25V35M25 25L16.25 16.25M35 25V35M35 25L43.75 16.25M35 35H25M35 35L43.75 43.75M25 35L16.25 43.75M24.9 15C24.6701 13.3914 23.9968 11.8786 22.9556 10.6312C21.9143 9.38367 20.5463 8.45076 19.0047 7.93696C17.4632 7.42317 15.809 7.34878 14.2276 7.72214C12.6461 8.0955 11.1999 8.90185 10.0509 10.0509C8.90185 11.1999 8.0955 12.6461 7.72214 14.2276C7.34878 15.809 7.42317 17.4632 7.93696 19.0047C8.45076 20.5463 9.38367 21.9143 10.6312 22.9556C11.8786 23.9968 13.3914 24.6701 15 24.9M45 24.9C46.6086 24.6701 48.1214 23.9968 49.3689 22.9556C50.6164 21.9143 51.5493 20.5463 52.0631 19.0047C52.5768 17.4632 52.6512 15.809 52.2779 14.2276C51.9045 12.6461 51.0982 11.1999 49.9492 10.0509C48.8002 8.90185 47.3539 8.0955 45.7725 7.72214C44.191 7.34878 42.5368 7.42317 40.9953 7.93696C39.4537 8.45076 38.0857 9.38367 37.0444 10.6312C36.0032 11.8786 35.3299 13.3914 35.1 15M35.1 45C35.3299 46.6086 36.0032 48.1214 37.0444 49.3689C38.0857 50.6164 39.4537 51.5493 40.9953 52.0631C42.5368 52.5768 44.191 52.6512 45.7725 52.2779C47.3539 51.9045 48.8002 51.0982 49.9492 49.9492C51.0982 48.8002 51.9045 47.3539 52.2779 45.7725C52.6512 44.191 52.5768 42.5368 52.0631 40.9953C51.5493 39.4537 50.6164 38.0857 49.3689 37.0444C48.1214 36.0032 46.6086 35.3299 45 35.1M15 35.1C13.3914 35.3299 11.8786 36.0032 10.6312 37.0444C9.38367 38.0857 8.45076 39.4537 7.93696 40.9953C7.42317 42.5368 7.34878 44.191 7.72214 45.7725C8.0955 47.3539 8.90185 48.8002 10.0509 49.9492C11.1999 51.0982 12.6461 51.9045 14.2276 52.2779C15.809 52.6512 17.4632 52.5768 19.0047 52.0631C20.5463 51.5493 21.9143 50.6164 22.9556 49.3689C23.9968 48.1214 24.6701 46.6086 24.9 45" stroke="#EF4918" stroke-width="3" stroke-linecap="round" stroke-linejoin="round"/>
</svg>
