<svg width="60" height="60" viewBox="0 0 60 60" fill="none" xmlns="http://www.w3.org/2000/svg">
<path fill-rule="evenodd" clip-rule="evenodd" d="M39.245 9.38496C41.5725 8.24746 44.1625 7.60996 46.32 8.65496C47.47 9.20996 48.2675 10.1425 48.7475 11.25C49.185 12.2575 49.365 13.405 49.3725 14.59C49.3825 15.585 49.2725 16.6625 49.0625 17.795C48.6923 19.6768 48.1544 21.5216 47.455 23.3075C47.3797 23.505 47.2715 23.6885 47.135 23.85C47.5975 24.005 48.05 24.165 48.49 24.33L48.495 24.3325C48.9437 24.5019 49.3896 24.6786 49.8325 24.8625C50.6475 25.2025 51.4125 25.56 52.125 25.93C52.855 26.31 53.54 26.7075 54.165 27.125C56.32 28.56 58.175 30.475 58.365 32.865C58.465 34.14 58.06 35.295 57.345 36.2725C56.695 37.1575 55.795 37.89 54.7775 38.4975C53.8475 39.0386 52.8681 39.4898 51.8525 39.845C50.215 40.4325 48.3325 40.895 46.2825 41.235C45.7919 41.3162 45.289 41.1992 44.8847 40.9097C44.4803 40.6202 44.2075 40.1819 44.1262 39.6912C44.045 39.2006 44.162 38.6977 44.4515 38.2934C44.7411 37.889 45.1793 37.6162 45.67 37.535C46.942 37.3309 48.2002 37.0487 49.4375 36.69L49.45 36.685C50.865 36.265 52.005 35.785 52.8575 35.275C53.595 34.8375 54.0575 34.415 54.32 34.055C54.585 33.695 54.645 33.4125 54.625 33.16C54.5775 32.57 54.0075 31.5275 52.085 30.245C51.5399 29.8855 50.9758 29.5558 50.395 29.2575L47.155 27.835C42.7725 26.195 36.905 24.94 30.4425 24.49C29.64 24.4325 28.85 24.39 28.07 24.3625C26.9994 25.7176 25.9771 27.1101 25.005 28.5375C23.2687 31.0681 21.71 33.7162 20.34 36.4625C20.742 36.6949 21.0435 37.0682 21.1861 37.5101C21.3286 37.9521 21.3021 38.4312 21.1117 38.8547C20.9212 39.2782 20.5804 39.616 20.1552 39.8026C19.73 39.9893 19.2506 40.0115 18.81 39.865C18.2364 41.2768 17.7594 42.7259 17.3825 44.2025L17.375 44.2275C16.8875 46.2225 16.78 47.7875 16.95 48.8775C17.0175 49.3025 17.1175 49.6175 17.2325 49.8525C17.4075 50.2075 17.62 50.3775 17.8025 50.4675L17.8125 50.4725C17.9416 50.5336 18.0788 50.5757 18.22 50.5975C18.5275 50.6475 18.945 50.64 19.5 50.5225C20.5 50.305 21.7675 49.7575 23.2525 48.8275C24.2658 48.19 25.2362 47.4868 26.1575 46.7225L29.0975 44.335C29.4851 44.0394 29.9725 43.9064 30.4565 43.9641C30.9405 44.0218 31.383 44.2657 31.6902 44.6441C31.9974 45.0225 32.1452 45.5057 32.1022 45.9912C32.0592 46.4767 31.8289 46.9264 31.46 47.245L28.525 49.63C27.8275 50.1975 27.1375 50.7225 26.4575 51.1975C26.05 51.485 25.645 51.7525 25.2425 52.005C23.55 53.0675 21.8675 53.8475 20.29 54.1875C19.4 54.38 18.49 54.44 17.615 54.2975C17.1175 54.2174 16.6341 54.0659 16.18 53.8475L16.1375 53.8275C14.3125 52.9275 13.475 51.145 13.22 49.2775C12.9675 47.425 13.235 45.22 13.8525 42.8675C14.2025 41.5325 14.6775 40.1075 15.2725 38.6175L14.005 38.1675C13.1942 37.8655 12.3945 37.5345 11.6075 37.175C11.1663 36.972 10.7303 36.7577 10.3 36.5325C8.53 35.6075 7.005 34.5475 5.9175 33.3575C5.29899 32.7028 4.80884 31.9379 4.4725 31.1025C4.28977 30.6321 4.17609 30.1379 4.135 29.635L4.1325 29.59C3.9925 27.56 5.105 25.94 6.59 24.775C8.0625 23.6225 10.1 22.74 12.4425 22.0875C16.1625 21.0525 20.9675 20.5075 26.3225 20.57C28.855 17.5325 31.47 14.9125 33.9725 12.875V12.87C34.3462 12.5682 34.7246 12.2724 35.1075 11.9825C35.8125 11.4525 36.5075 10.97 37.185 10.5425C37.8825 10.1025 38.57 9.71246 39.245 9.38496ZM31.115 20.775C35.68 21.1175 40.025 21.85 43.84 22.86C43.8033 22.5579 43.8411 22.2515 43.95 21.9675C44.4575 20.6375 44.8475 19.405 45.12 18.2875L45.125 18.275C45.475 16.84 45.6325 15.615 45.625 14.62C45.6175 13.7625 45.4875 13.15 45.3075 12.7425C45.1325 12.3325 44.9175 12.1375 44.6875 12.0275C44.155 11.77 42.9675 11.7375 40.8925 12.7525C40.3073 13.0406 39.7381 13.3603 39.1875 13.71L36.3225 15.7925C34.4685 17.3252 32.7281 18.9904 31.115 20.775ZM23.37 24.35C19.5 24.48 16.1075 24.96 13.45 25.7C13.3228 25.7348 13.1961 25.7715 13.07 25.81L13.0475 25.815C11.0775 26.4 9.6725 27.0975 8.815 27.7975C8.54725 28.0055 8.31215 28.2524 8.1175 28.53C7.94782 28.7613 7.86146 29.0433 7.8725 29.33V29.3425C7.88564 29.4849 7.91932 29.6247 7.9725 29.7575C8.085 30.0475 8.3025 30.4075 8.6825 30.825C9.3725 31.58 10.485 32.4 12.04 33.21C13.1048 33.7565 14.2009 34.2398 15.3225 34.6575L16.7925 35.1775C18.282 32.1405 19.9907 29.2161 21.905 26.4275C22.3875 25.72 22.875 25.0275 23.37 24.35Z" fill="#EF4918"/>
<path d="M29.4125 35.7025C29.3775 33.4275 29.3625 32.29 30.0775 31.875C30.795 31.46 31.7725 32.045 33.7275 33.2125L34.2325 33.5125C34.7875 33.8475 35.065 34.0125 35.37 34.05C35.6775 34.09 35.975 33.9975 36.575 33.81L37.12 33.6425C39.2275 32.9875 40.28 32.66 40.915 33.2425C41.5475 33.83 41.34 34.94 40.9275 37.1575L40.8225 37.7325C40.705 38.3625 40.6475 38.68 40.715 38.9875C40.785 39.295 40.975 39.5625 41.355 40.0925L41.7 40.5775C43.0375 42.45 43.705 43.385 43.38 44.16C43.055 44.935 41.9475 45.0375 39.74 45.2425L39.1675 45.295C38.5425 45.3525 38.2275 45.3825 37.9625 45.535C37.7 45.685 37.5175 45.9425 37.155 46.4575L36.8225 46.925C35.5425 48.7375 34.9025 49.6425 34.0675 49.5375C33.2325 49.4325 32.755 48.385 31.8025 46.2925L31.5575 45.75C31.285 45.155 31.15 44.8575 30.9175 44.6425C30.685 44.43 30.385 44.3225 29.78 44.1075L29.23 43.9125C27.1 43.1625 26.035 42.7875 25.845 41.945C25.655 41.1025 26.465 40.355 28.0875 38.8575L28.505 38.47C28.965 38.045 29.1975 37.83 29.315 37.545C29.435 37.2625 29.43 36.9375 29.42 36.2925L29.4125 35.7025Z" fill="#EF4918"/>
</svg>
