<svg width="61" height="60" viewBox="0 0 61 60" fill="none" xmlns="http://www.w3.org/2000/svg">
<path d="M25.4998 25H35.4998M25.4998 25V35M25.4998 25L16.7498 16.25M35.4998 25V35M35.4998 25L44.2498 16.25M35.4998 35H25.4998M35.4998 35L44.2498 43.75M25.4998 35L16.7498 43.75M25.3998 15C25.1699 13.3914 24.4966 11.8786 23.4554 10.6312C22.4142 9.38367 21.0461 8.45076 19.5046 7.93696C17.963 7.42317 16.3088 7.34878 14.7274 7.72214C13.1459 8.0955 11.6997 8.90185 10.5507 10.0509C9.40167 11.1999 8.59532 12.6461 8.22196 14.2276C7.8486 15.809 7.92299 17.4632 8.43678 19.0047C8.95058 20.5463 9.88348 21.9143 11.131 22.9556C12.3785 23.9968 13.8912 24.6701 15.4998 24.9M45.4998 24.9C47.1084 24.6701 48.6212 23.9968 49.8687 22.9556C51.1162 21.9143 52.0491 20.5463 52.5629 19.0047C53.0767 17.4632 53.1511 15.809 52.7777 14.2276C52.4043 12.6461 51.598 11.1999 50.449 10.0509C49.3 8.90185 47.8537 8.0955 46.2723 7.72214C44.6908 7.34878 43.0367 7.42317 41.4951 7.93696C39.9535 8.45076 38.5855 9.38367 37.5443 10.6312C36.503 11.8786 35.8297 13.3914 35.5998 15M35.5998 45C35.8297 46.6086 36.503 48.1214 37.5443 49.3689C38.5855 50.6164 39.9535 51.5493 41.4951 52.0631C43.0367 52.5768 44.6908 52.6512 46.2723 52.2779C47.8537 51.9045 49.3 51.0982 50.449 49.9492C51.598 48.8002 52.4043 47.3539 52.7777 45.7725C53.1511 44.191 53.0767 42.5368 52.5629 40.9953C52.0491 39.4537 51.1162 38.0857 49.8687 37.0444C48.6212 36.0032 47.1084 35.3299 45.4998 35.1M15.4998 35.1C13.8912 35.3299 12.3785 36.0032 11.131 37.0444C9.88348 38.0857 8.95058 39.4537 8.43678 40.9953C7.92299 42.5368 7.8486 44.191 8.22196 45.7725C8.59532 47.3539 9.40167 48.8002 10.5507 49.9492C11.6997 51.0982 13.1459 51.9045 14.7274 52.2779C16.3088 52.6512 17.963 52.5768 19.5046 52.0631C21.0461 51.5493 22.4142 50.6164 23.4554 49.3689C24.4966 48.1214 25.1699 46.6086 25.3998 45" stroke="white" stroke-width="3" stroke-linecap="round" stroke-linejoin="round"/>
</svg>
