<svg width="160" height="53" viewBox="0 0 160 53" fill="none" xmlns="http://www.w3.org/2000/svg">
<path d="M26.8112 18.9248C24.7268 18.9248 22.8437 19.7974 21.5066 21.1977C20.8662 21.8599 20.3535 22.6429 20.0063 23.504C19.6533 24.3605 19.459 25.2963 19.459 26.277C19.459 27.2806 19.6614 28.2349 20.0281 29.1075C20.3834 29.9686 20.9042 30.7469 21.548 31.4057C22.8805 32.7795 24.7487 33.6337 26.8112 33.6337C30.8661 33.6337 34.1634 30.3319 34.1634 26.277C34.1634 22.2267 30.8661 18.9248 26.8112 18.9248ZM26.8112 30.4779C26.0628 30.4779 25.3592 30.279 24.7487 29.9306C23.9175 29.4627 23.2587 28.7143 22.9069 27.8164C22.7195 27.3404 22.6149 26.8196 22.6149 26.277C22.6149 25.7573 22.7092 25.2595 22.8851 24.7985C23.2254 23.896 23.8657 23.1441 24.6855 22.6612C25.3109 22.2945 26.0363 22.0807 26.8112 22.0807C28.6599 22.0807 30.2292 23.2809 30.7902 24.9411L28.0965 25.5941C27.8471 25.1135 27.3504 24.7824 26.7733 24.7824C25.9478 24.7824 25.2752 25.4538 25.2752 26.2793C25.2752 27.1047 25.9478 27.7773 26.7733 27.7773C27.3033 27.7773 27.7666 27.4991 28.0333 27.0829L30.7546 27.7106C30.1671 29.3225 28.6254 30.4779 26.8112 30.4779Z" fill="#00A0E3"/>
<path d="M53.0594 26.2793C53.0594 11.7888 41.2707 0 26.779 0C21.8113 0 17.17 1.39571 13.2048 3.80312C12.7449 3.54445 12.2149 3.39499 11.6504 3.39499C9.89605 3.39499 8.46815 4.82288 8.46815 6.57729C8.46815 8.33169 9.89605 9.75959 11.6504 9.75959C13.4049 9.75959 14.8327 8.33169 14.8327 6.57729C14.8327 6.55085 14.8293 6.52555 14.8281 6.49911C18.3186 4.38026 22.4068 3.15356 26.779 3.15356C39.5312 3.15356 49.9047 13.5282 49.9047 26.2793C49.9047 30.3457 48.8447 34.166 46.9937 37.4897L44.6622 35.1605C45.9993 32.4852 46.7512 29.4639 46.7512 26.2781C46.7512 21.9358 45.3532 17.9165 42.9894 14.6331L40.7246 16.8968C40.7269 16.8991 40.7269 16.9002 40.728 16.9025L38.4482 19.1823C36.0477 15.2493 31.7146 12.6177 26.779 12.6177C19.2463 12.6177 13.1174 18.7466 13.1174 26.2793C13.1174 27.6934 13.3336 29.0569 13.7348 30.3411L11.286 32.7899C10.4398 30.7848 9.96388 28.5878 9.96388 26.2793C9.96388 17.0071 17.5069 9.46297 26.779 9.46297C29.4175 9.46297 31.9089 10.0838 34.1323 11.1714C34.1381 12.9212 35.5637 14.3422 37.3146 14.3422C39.069 14.3422 40.4958 12.9154 40.4958 11.1599C40.4958 9.40549 39.069 7.97874 37.3146 7.97874C36.7249 7.97874 36.173 8.142 35.6993 8.42367C33.0126 7.07395 29.9855 6.30941 26.779 6.30941C20.158 6.30941 14.2832 9.55035 10.6468 14.5273L6.93448 10.8138H6.93333L6.15041 10.0298C2.61746 14.5054 0.499756 20.148 0.499756 26.2793C0.499756 40.7698 12.2885 52.5597 26.779 52.5597C31.764 52.5597 36.4236 51.1582 40.3969 48.737C40.8441 48.9773 41.3546 49.1141 41.8972 49.1141C43.6528 49.1141 45.0795 47.6862 45.0795 45.9318C45.0795 44.1774 43.6528 42.7495 41.8972 42.7495C40.1428 42.7495 38.7161 44.1774 38.7161 45.9318C38.7161 45.9778 38.7207 46.0226 38.723 46.0686C35.2349 48.1829 31.1478 49.405 26.779 49.405C14.028 49.405 3.65446 39.0303 3.65446 26.2793C3.65446 22.1703 4.73746 18.312 6.62522 14.9653L8.95331 17.2934C7.5852 19.9963 6.80917 23.0475 6.80917 26.2793C6.80917 30.6377 8.21637 34.6719 10.595 37.9588L12.8553 35.6985C12.853 35.6951 12.8519 35.6905 12.8484 35.687L15.1294 33.4061C17.5345 37.323 21.8561 39.9408 26.779 39.9408C34.3128 39.9408 40.4418 33.8119 40.4418 26.2793C40.4418 24.879 40.2291 23.5281 39.8359 22.2554L42.2893 19.8031C43.1274 21.7978 43.5976 23.9834 43.5976 26.2781C43.5976 29.5685 42.6491 32.6381 41.0097 35.2318C40.9166 35.3858 40.8188 35.5341 40.7246 35.6813C37.6929 40.1501 32.5722 43.0944 26.7813 43.0944C24.19 43.0944 21.7457 42.4977 19.5545 41.4481C19.5579 41.3883 19.5637 41.3285 19.5637 41.2676C19.5637 39.5132 18.1369 38.0864 16.3825 38.0864C14.627 38.0864 13.2002 39.5132 13.2002 41.2676C13.2002 43.0231 14.627 44.4499 16.3825 44.4499C16.8953 44.4499 17.3793 44.3257 17.8093 44.1084C20.5098 45.4731 23.553 46.248 26.7813 46.248C33.4437 46.248 39.3542 42.9691 42.9837 37.9404L46.4764 41.4331L46.4798 41.4297L47.4847 42.4345C50.9728 37.9738 53.0594 32.3668 53.0594 26.2793ZM11.6504 8.07417C10.825 8.07417 10.1524 7.40275 10.1524 6.57729C10.1524 5.75067 10.825 5.07926 11.6504 5.07926C12.4759 5.07926 13.1473 5.75067 13.1473 6.57729C13.1473 7.40275 12.4759 8.07417 11.6504 8.07417ZM38.8115 11.1599C38.8115 11.9865 38.1401 12.6579 37.3146 12.6579C36.488 12.6579 35.8166 11.9865 35.8166 11.1599C35.8166 10.3344 36.488 9.66302 37.3146 9.66302C38.1401 9.66302 38.8115 10.3344 38.8115 11.1599ZM41.8972 44.4349C42.7227 44.4349 43.3953 45.1063 43.3953 45.9318C43.3953 46.7573 42.7227 47.4298 41.8972 47.4298C41.0718 47.4298 40.4004 46.7573 40.4004 45.9318C40.4004 45.1063 41.0718 44.4349 41.8972 44.4349ZM16.3825 42.7656C15.5559 42.7656 14.8845 42.0942 14.8845 41.2676C14.8845 40.4421 15.5559 39.7707 16.3825 39.7707C17.208 39.7707 17.8794 40.4421 17.8794 41.2676C17.8794 42.0942 17.208 42.7656 16.3825 42.7656ZM26.779 36.7861C20.9858 36.7861 16.2721 32.0725 16.2721 26.2793C16.2721 20.4861 20.9858 15.7724 26.779 15.7724C32.5734 15.7724 37.287 20.4861 37.287 26.2793C37.287 32.0725 32.5734 36.7861 26.779 36.7861Z" fill="#00A0E3"/>
<path d="M72.4855 8.84326V16.6921H71.0507V10.0757H67.9557L67.8891 12.0382C67.8511 13.1373 67.7614 14.0283 67.62 14.7124C67.4775 15.3964 67.2498 15.9161 66.936 16.2713C66.6221 16.6266 66.1875 16.8048 65.6345 16.8048C65.4403 16.8048 65.1747 16.7668 64.839 16.6921L64.939 15.4251C65.0367 15.455 65.1482 15.47 65.2758 15.47C65.7323 15.47 66.0553 15.1987 66.2462 14.656C66.4359 14.1145 66.5543 13.2603 66.5991 12.0945L66.7106 8.84326H72.4855Z" fill="white"/>
<path d="M80.5826 15.47V16.6921H74.6951V8.84326H80.4251V10.0654H76.1529V12.106H79.9422V13.3051H76.1529V15.47H80.5826Z" fill="white"/>
<path d="M87.9038 10.0757H85.302V16.6921H83.8557V10.0757H81.2655V8.84326H87.9038V10.0757Z" fill="white"/>
<path d="M93.9706 14.8756H90.0456L89.2719 16.6921H87.7692L91.3022 8.84326H92.737L96.2803 16.6921H94.7558L93.9706 14.8756ZM93.4889 13.7317L92.0081 10.301L90.5388 13.7317H93.4889Z" fill="white"/>
<path d="M102.784 10.0757H100.182V16.6921H98.736V10.0757H96.1457V8.84326H102.784V10.0757Z" fill="white"/>
<path d="M109.927 15.47V16.6921H104.039V8.84326H109.769V10.0654H105.497V12.106H109.288V13.3051H105.497V15.47H109.927Z" fill="white"/>
<path d="M118.259 8.84326V16.6921H116.823V10.0757H113.728L113.661 12.0382C113.623 13.1373 113.533 14.0283 113.392 14.7124C113.249 15.3964 113.022 15.9161 112.708 16.2713C112.394 16.6266 111.96 16.8048 111.407 16.8048C111.212 16.8048 110.947 16.7668 110.611 16.6921L110.711 15.4251C110.809 15.455 110.921 15.47 111.048 15.47C111.504 15.47 111.827 15.1987 112.018 14.656C112.209 14.1145 112.326 13.2603 112.371 12.0945L112.484 8.84326H118.259Z" fill="white"/>
<path d="M126.259 12.1336C126.764 12.5567 127.016 13.1821 127.016 14.0122C127.016 14.8791 126.739 15.5424 126.186 16.0023C125.633 16.4622 124.855 16.6921 123.853 16.6921H120.479V8.84326H121.913V11.5002H124.089C125.031 11.5002 125.754 11.7117 126.259 12.1336ZM125.098 15.178C125.405 14.917 125.558 14.5353 125.558 14.034C125.558 13.0856 124.967 12.6096 123.786 12.6096H121.913V15.57H123.786C124.354 15.57 124.791 15.4401 125.098 15.178Z" fill="white"/>
<path d="M135.482 8.84326V16.6921H134.024V13.3281H129.965V16.6921H128.507V8.84326H129.965V12.083H134.024V8.84326H135.482Z" fill="white"/>
<path d="M143.471 12.1336C143.976 12.5567 144.227 13.1821 144.227 14.0122C144.227 14.8791 143.952 15.5424 143.399 16.0023C142.846 16.4622 142.067 16.6921 141.066 16.6921H137.69V8.84326H139.126V11.5002H141.302C142.243 11.5002 142.966 11.7117 143.471 12.1336ZM142.311 15.178C142.617 14.917 142.77 14.5353 142.77 14.034C142.77 13.0856 142.18 12.6096 140.999 12.6096H139.126V15.57H140.999C141.567 15.57 142.004 15.4401 142.311 15.178ZM145.36 8.84326H146.796V16.6921H145.36V8.84326Z" fill="white"/>
<path d="M154.892 15.47V16.6921H149.004V8.84326H154.734V10.0654H150.462V12.106H154.253V13.3051H150.462V15.47H154.892Z" fill="white"/>
<path d="M65.792 22.2991H71.9026V23.4982H67.2268V25.4273H69.548C70.4896 25.4273 71.2059 25.6239 71.6956 26.016C72.1854 26.408 72.4302 26.9748 72.4302 27.714C72.4302 28.4924 72.1601 29.0925 71.6232 29.5144C71.084 29.9364 70.3183 30.1479 69.3238 30.1479H65.792V22.2991ZM69.2457 29.0258C69.8055 29.0258 70.2321 28.9177 70.5241 28.7016C70.815 28.4843 70.961 28.1705 70.961 27.7589C70.961 26.9518 70.3896 26.5483 69.2457 26.5483H67.2268V29.0258H69.2457Z" fill="white"/>
<path d="M79.9089 28.9258V30.1479H74.0214V22.2991H79.7525V23.5212H75.4792V25.5618H79.2697V26.761H75.4792V28.9258H79.9089Z" fill="white"/>
<path d="M82.9647 29.7387C82.3255 29.3904 81.8243 28.911 81.4621 28.2982C81.1 27.6854 80.9183 26.9933 80.9183 26.223C80.9183 25.4527 81.1011 24.7618 81.4679 24.149C81.8346 23.5362 82.337 23.0557 82.9762 22.7085C83.6155 22.3601 84.3317 22.1865 85.1227 22.1865C85.7665 22.1865 86.3528 22.2992 86.884 22.5222C87.4151 22.7476 87.8635 23.0729 88.2291 23.4983L87.2875 24.3847C86.7196 23.7719 86.0206 23.465 85.1905 23.465C84.6525 23.465 84.1708 23.5822 83.7442 23.8179C83.3177 24.0536 82.9854 24.3801 82.7463 24.7986C82.5072 25.2182 82.3876 25.6919 82.3876 26.223C82.3876 26.7542 82.5072 27.229 82.7463 27.6475C82.9854 28.066 83.3177 28.3936 83.7442 28.6281C84.1708 28.8638 84.6525 28.9811 85.1905 28.9811C86.0206 28.9811 86.7196 28.6718 87.2875 28.051L88.2291 28.9478C87.8635 29.3743 87.4128 29.6996 86.8782 29.9238C86.3436 30.148 85.755 30.2607 85.1123 30.2607C84.3202 30.2607 83.604 30.0859 82.9647 29.7387Z" fill="white"/>
<path d="M96.5378 22.2991V30.1479H95.103V23.5315H91.032V30.1479H89.5972V22.2991H96.5378Z" fill="white"/>
<path d="M98.7578 22.2991H100.194V27.8715L104.41 22.2991H105.766V30.1479H104.33V24.5858L100.114 30.1479H98.7578V22.2991Z" fill="white"/>
<path d="M114.591 22.2991V30.1479H113.156V23.5315H110.061L109.994 25.494C109.957 26.5931 109.866 27.4841 109.725 28.1682C109.582 28.8522 109.354 29.3719 109.041 29.7271C108.727 30.0824 108.293 30.2606 107.74 30.2606C107.546 30.2606 107.28 30.2226 106.944 30.1479L107.045 28.881C107.141 28.9109 107.254 28.9258 107.382 28.9258C107.837 28.9258 108.161 28.6545 108.351 28.1118C108.542 27.5703 108.659 26.7161 108.704 25.5504L108.816 22.2991H114.591Z" fill="white"/>
<path d="M118.269 29.7387C117.626 29.3904 117.122 28.9087 116.755 28.2924C116.389 27.6751 116.206 26.9864 116.206 26.223C116.206 25.4608 116.389 24.771 116.755 24.1548C117.122 23.5374 117.626 23.0557 118.269 22.7085C118.912 22.3601 119.634 22.1865 120.433 22.1865C121.233 22.1865 121.955 22.3601 122.597 22.7085C123.24 23.0557 123.745 23.5362 124.112 24.149C124.477 24.7618 124.66 25.4527 124.66 26.223C124.66 26.9933 124.477 27.6854 124.112 28.2982C123.745 28.911 123.24 29.3904 122.597 29.7387C121.955 30.0859 121.233 30.2607 120.433 30.2607C119.634 30.2607 118.912 30.0859 118.269 29.7387ZM121.847 28.6281C122.265 28.3936 122.594 28.0637 122.833 27.6417C123.072 27.2198 123.192 26.7461 123.192 26.223C123.192 25.6999 123.072 25.2274 122.833 24.8055C122.594 24.3824 122.265 24.0536 121.847 23.8179C121.427 23.5822 120.957 23.465 120.433 23.465C119.91 23.465 119.439 23.5822 119.02 23.8179C118.602 24.0536 118.272 24.3824 118.033 24.8055C117.794 25.2274 117.675 25.6999 117.675 26.223C117.675 26.7461 117.794 27.2198 118.033 27.6417C118.272 28.0637 118.602 28.3936 119.02 28.6281C119.439 28.8638 119.91 28.9811 120.433 28.9811C120.957 28.9811 121.427 28.8638 121.847 28.6281Z" fill="white"/>
<path d="M131.859 23.5315H129.258V30.1479H127.811V23.5315H125.221V22.2991H131.859V23.5315Z" fill="white"/>
<path d="M140.09 22.2991V30.1479H138.632V26.784H134.573V30.1479H133.115V22.2991H134.573V25.5389H138.632V22.2991H140.09Z" fill="white"/>
<path d="M148.079 25.5894C148.584 26.0125 148.835 26.6379 148.835 27.468C148.835 28.3349 148.559 28.9982 148.005 29.4581C147.452 29.918 146.675 30.1479 145.674 30.1479H142.298V22.2991H143.734V24.956H145.909C146.851 24.956 147.574 25.1675 148.079 25.5894ZM146.918 28.6338C147.225 28.3728 147.379 27.9911 147.379 27.4899C147.379 26.5414 146.788 26.0654 145.606 26.0654H143.734V29.0258H145.606C146.175 29.0258 146.612 28.8959 146.918 28.6338ZM149.968 22.2991H151.404V30.1479H149.968V22.2991Z" fill="white"/>
<path d="M159.5 28.9258V30.1479H153.612V22.2991H159.342V23.5212H155.07V25.5618H158.86V26.761H155.07V28.9258H159.5Z" fill="white"/>
<path d="M67.2441 43.1943C66.6049 42.8471 66.1036 42.3665 65.7414 41.7538C65.3793 41.141 65.1977 40.4489 65.1977 39.6786C65.1977 38.9095 65.3805 38.2174 65.7472 37.6046C66.1128 36.9918 66.6152 36.5112 67.2544 36.164C67.8936 35.8157 68.6099 35.6421 69.402 35.6421C70.0447 35.6421 70.6322 35.7548 71.1633 35.9789C71.6933 36.2031 72.1417 36.5285 72.5084 36.9539L71.5669 37.8403C70.9978 37.2275 70.2999 36.9205 69.4698 36.9205C68.9318 36.9205 68.4489 37.0389 68.0236 37.2735C67.597 37.5092 67.2648 37.8368 67.0245 38.2553C66.7854 38.6738 66.6658 39.1486 66.6658 39.6786C66.6658 40.2097 66.7854 40.6846 67.0245 41.103C67.2648 41.5215 67.597 41.8492 68.0236 42.0837C68.4489 42.3194 68.9318 42.4378 69.4698 42.4378C70.2999 42.4378 70.9978 42.1274 71.5669 41.5066L72.5084 42.4033C72.1417 42.8299 71.691 43.1552 71.1576 43.3794C70.623 43.6036 70.0343 43.7163 69.3917 43.7163C68.5984 43.7163 67.8833 43.5415 67.2441 43.1943Z" fill="white"/>
<path d="M73.8766 35.7549H75.3114V41.3274L79.5272 35.7549H80.885V43.6037H79.449V38.0416L75.2332 43.6037H73.8766V35.7549Z" fill="white"/>
<path d="M84.5455 43.1943C83.9063 42.8471 83.4051 42.3665 83.0429 41.7538C82.6808 41.141 82.4991 40.4489 82.4991 39.6786C82.4991 38.9095 82.6819 38.2174 83.0487 37.6046C83.4143 36.9918 83.9178 36.5112 84.557 36.164C85.1963 35.8157 85.9114 35.6421 86.7035 35.6421C87.3461 35.6421 87.9336 35.7548 88.4648 35.9789C88.9948 36.2031 89.4432 36.5285 89.8099 36.9539L88.8683 37.8403C88.2992 37.2275 87.6014 36.9205 86.7713 36.9205C86.2333 36.9205 85.7515 37.0389 85.325 37.2735C84.8985 37.5092 84.5662 37.8368 84.3271 38.2553C84.088 38.6738 83.9684 39.1486 83.9684 39.6786C83.9684 40.2097 84.088 40.6846 84.3271 41.103C84.5662 41.5215 84.8985 41.8492 85.325 42.0837C85.7515 42.3194 86.2333 42.4378 86.7713 42.4378C87.6014 42.4378 88.2992 42.1274 88.8683 41.5066L89.8099 42.4033C89.4432 42.8299 88.9936 43.1552 88.459 43.3794C87.9244 43.6036 87.3358 43.7163 86.6931 43.7163C85.8999 43.7163 85.1848 43.5415 84.5455 43.1943Z" fill="white"/>
<path d="M96.7735 36.9885H94.1718V43.6037H92.7255V36.9885H90.1352V35.7549H96.7735V36.9885Z" fill="white"/>
<path d="M103.916 42.3816V43.6037H98.0289V35.7549H103.759V36.977H99.4867V39.0177H103.277V40.2179H99.4867V42.3816H103.916Z" fill="white"/>
<path d="M112.753 43.6037L112.741 38.4014L110.163 42.707H109.512L106.933 38.4681V43.6037H105.554V35.7549H106.754L109.859 40.9457L112.932 35.7549H114.121L114.143 43.6037H112.753Z" fill="white"/>
<path d="M122.132 39.0453C122.637 39.4683 122.888 40.0938 122.888 40.9238C122.888 41.7907 122.612 42.454 122.059 42.9139C121.506 43.3738 120.728 43.6037 119.727 43.6037H116.351V35.7549H117.787V38.4118H119.962C120.904 38.4118 121.627 38.6233 122.132 39.0453ZM120.971 42.0896C121.278 41.8286 121.432 41.4469 121.432 40.9457C121.432 39.9972 120.841 39.5224 119.659 39.5224H117.787V42.4828H119.659C120.228 42.4828 120.665 42.3517 120.971 42.0896ZM124.021 35.7549H125.457V43.6037H124.021V35.7549Z" fill="white"/>
</svg>
