<svg width="60" height="60" viewBox="0 0 60 60" fill="none" xmlns="http://www.w3.org/2000/svg">
<path d="M7.83333 30C7.83333 32.0611 8.08833 34.0587 8.59833 35.9925C9.10833 37.9264 9.85633 39.7263 10.8423 41.3923C11.0747 41.7761 11.1625 42.1703 11.1058 42.5749C11.0492 42.9814 10.8537 43.3072 10.5193 43.5523C10.185 43.8068 9.82139 43.8638 9.4285 43.7232C9.0375 43.5827 8.74378 43.3395 8.54733 42.9938C7.42533 41.0713 6.55361 39.0216 5.93217 36.8445C5.31072 34.6675 5 32.386 5 30C5 27.614 5.31072 25.3297 5.93217 23.1469C6.55361 20.9642 7.42533 18.9126 8.54733 16.992C8.74378 16.6443 9.0375 16.4031 9.4285 16.2682C9.82139 16.1333 10.185 16.1932 10.5193 16.4477C10.8537 16.6947 11.0492 17.0205 11.1058 17.4251C11.1625 17.8297 11.0747 18.2239 10.8423 18.6077C9.85633 20.2737 9.10833 22.0736 8.59833 24.0075C8.08833 25.9413 7.83333 27.9389 7.83333 30ZM30.5 46C26.1046 46 22.3542 44.4385 19.2488 41.3154C16.1435 38.1923 14.5908 34.4205 14.5908 30C14.5908 25.5795 16.1435 21.8077 19.2488 18.6846C22.3542 15.5615 26.1046 14 30.5 14C34.8954 14 38.6458 15.5615 41.7512 18.6846C44.8565 21.8077 46.4092 25.5795 46.4092 30C46.4092 34.4205 44.8565 38.1923 41.7512 41.3154C38.6458 44.4385 34.8954 46 30.5 46ZM30.5 43.1505C34.1267 43.1505 37.2122 41.8701 39.7565 39.3094C42.3008 36.7486 43.5739 33.6455 43.5758 30C43.5758 26.3526 42.3027 23.2495 39.7565 20.6906C37.2103 18.1318 34.1248 16.8514 30.5 16.8495C26.8733 16.8495 23.7878 18.1299 21.2435 20.6906C18.6992 23.2514 17.4261 26.3545 17.4242 30C17.4242 33.6474 18.6973 36.7505 21.2435 39.3094C23.7897 41.8682 26.8752 43.1486 30.5 43.1505ZM53.1667 30C53.1667 27.9389 52.9022 25.9413 52.3733 24.0075C51.8444 22.0736 51.0889 20.2737 50.1067 18.6077C49.8724 18.2239 49.7903 17.8297 49.8602 17.4251C49.9282 17.0186 50.1293 16.6928 50.4637 16.4477C50.798 16.1932 51.1644 16.1333 51.563 16.2682C51.9597 16.4012 52.2562 16.6424 52.4527 16.992C53.5747 18.9126 54.4464 20.9642 55.0678 23.1469C55.6893 25.3316 56 27.6159 56 30C56 32.386 55.6893 34.6675 55.0678 36.8445C54.4464 39.0216 53.5747 41.0713 52.4527 42.9938C52.2562 43.3395 51.9597 43.5827 51.563 43.7232C51.1663 43.8638 50.7999 43.8068 50.4637 43.5523C50.1293 43.3053 49.9282 42.9795 49.8602 42.5749C49.7903 42.1703 49.8715 41.7761 50.1038 41.3923C51.0879 39.7263 51.8444 37.9264 52.3733 35.9925C52.9022 34.0587 53.1667 32.0611 53.1667 30Z" fill="white"/>
</svg>
