<svg width="60" height="60" viewBox="0 0 60 60" fill="none" xmlns="http://www.w3.org/2000/svg">
<path d="M30 50C30.875 50 31.74 49.9375 32.595 49.8125C33.45 49.6875 34.2933 49.5208 35.125 49.3125C34.2917 48.1458 33.6458 46.875 33.1875 45.5C32.7292 44.125 32.5 42.7083 32.5 41.25C32.5 40.4583 32.5725 39.6983 32.7175 38.97C32.8625 38.2417 33.04 37.5225 33.25 36.8125C32.1667 36.2292 31.3333 35.3442 30.75 34.1575C30.1667 32.9708 29.875 31.585 29.875 30C29.875 27.875 30.4067 26.0942 31.47 24.6575C32.5333 23.2208 34.0017 22.5017 35.875 22.5C37.4583 22.5 38.7608 23.0317 39.7825 24.095C40.8042 25.1583 41.46 26.5433 41.75 28.25C42.4583 28 43.1875 27.8125 43.9375 27.6875C44.6875 27.5625 45.4583 27.5 46.25 27.5C46.875 27.5 47.49 27.5317 48.095 27.595C48.7 27.6583 49.2933 27.7933 49.875 28C49.625 25.4583 48.9275 23.0942 47.7825 20.9075C46.6375 18.7208 45.1792 16.8142 43.4075 15.1875C41.6358 13.5625 39.6042 12.2917 37.3125 11.375C35.0208 10.4583 32.5833 10 30 10C27.25 10 24.6558 10.5208 22.2175 11.5625C19.7792 12.6042 17.6542 14.0317 15.8425 15.845C14.0308 17.6567 12.6042 19.7817 11.5625 22.22C10.5208 24.6583 10 27.2517 10 30C10 32.75 10.5208 35.3442 11.5625 37.7825C12.6042 40.2208 14.0317 42.3458 15.845 44.1575C17.6567 45.9692 19.7817 47.3958 22.22 48.4375C24.6583 49.4792 27.2517 50 30 50ZM34.3125 34.4375C34.8958 33.4375 35.5942 32.51 36.4075 31.655C37.2208 30.8 38.1267 30.0817 39.125 29.5C39.0417 28.5417 38.7708 27.5625 38.3125 26.5625C37.8542 25.5625 37.0417 25.0625 35.875 25.0625C34.625 25.0625 33.7708 25.6358 33.3125 26.7825C32.8542 27.9292 32.625 29.0017 32.625 30C32.625 30.9583 32.7608 31.8333 33.0325 32.625C33.3042 33.4167 33.7308 34.0208 34.3125 34.4375ZM46.25 55C45.0417 55 43.8542 54.8442 42.6875 54.5325C41.5208 54.2208 40.4167 53.7517 39.375 53.125C37.875 53.75 36.3333 54.2192 34.75 54.5325C33.1667 54.8458 31.5833 55.0017 30 55C26.5417 55 23.2917 54.3433 20.25 53.03C17.2083 51.7167 14.5625 49.9358 12.3125 47.6875C10.0625 45.4375 8.28167 42.7917 6.97 39.75C5.65833 36.7083 5.00167 33.4583 5 30C5 26.5417 5.65667 23.2917 6.97 20.25C8.28333 17.2083 10.0642 14.5625 12.3125 12.3125C14.5625 10.0625 17.2083 8.28167 20.25 6.97C23.2917 5.65833 26.5417 5.00167 30 5C33.5 5 36.7917 5.6775 39.875 7.0325C42.9583 8.3875 45.6358 10.2208 47.9075 12.5325C50.1775 14.8442 51.9483 17.5625 53.22 20.6875C54.4917 23.8125 55.085 27.125 55 30.625C56.5833 31.9583 57.8125 33.5417 58.6875 35.375C59.5625 37.2083 60 39.1667 60 41.25C60 45.0833 58.6667 48.3333 56 51C53.3333 53.6667 50.0833 55 46.25 55ZM46.25 50C48.6667 50 50.7292 49.1458 52.4375 47.4375C54.1458 45.7292 55 43.6667 55 41.25C55 38.8333 54.1458 36.7708 52.4375 35.0625C50.7292 33.3542 48.6667 32.5 46.25 32.5C43.8333 32.5 41.7708 33.3542 40.0625 35.0625C38.3542 36.7708 37.5 38.8333 37.5 41.25C37.5 43.6667 38.3542 45.7292 40.0625 47.4375C41.7708 49.1458 43.8333 50 46.25 50ZM26.5625 37.1875H19.5C19.1667 37.1875 18.875 37.0625 18.625 36.8125C18.375 36.5625 18.25 36.2708 18.25 35.9375V35.1875C18.25 35.1042 18.375 34.8125 18.625 34.3125L19.6875 33.25L21.97 30.9675C22.6567 30.2808 23.1458 29.7708 23.4375 29.4375C24.0625 28.7292 24.4375 28.1975 24.5625 27.8425C24.6875 27.4875 24.75 27.1442 24.75 26.8125C24.75 26.6875 24.6558 26.365 24.4675 25.845C24.2792 25.325 23.7067 25.0642 22.75 25.0625C22.2917 25.0625 21.8642 25.2083 21.4675 25.5C21.0708 25.7917 20.79 26.1667 20.625 26.625C20.5417 26.9167 20.3858 27.1567 20.1575 27.345C19.9292 27.5333 19.6683 27.6267 19.375 27.625C19 27.625 18.6775 27.5 18.4075 27.25C18.1375 27 18.0017 26.6875 18 26.3125C18 26.1458 18.0417 25.9792 18.125 25.8125C18.4167 24.8542 19 24.0625 19.875 23.4375C20.75 22.8125 21.7292 22.5 22.8125 22.5C24.3125 22.5 25.49 22.9167 26.345 23.75C27.2 24.5833 27.6267 25.5625 27.625 26.6875C27.625 27.4792 27.4267 28.25 27.03 29C26.6333 29.75 26.0608 30.5 25.3125 31.25C24.9792 31.5833 24.5317 32.0208 23.97 32.5625C23.4083 33.1042 22.71 33.7917 21.875 34.625L21.9375 34.75H26.5625C26.8958 34.75 27.1775 34.865 27.4075 35.095C27.6375 35.325 27.7517 35.6058 27.75 35.9375C27.75 36.2708 27.6358 36.5625 27.4075 36.8125C27.1792 37.0625 26.8975 37.1875 26.5625 37.1875Z" fill="#EF4918"/>
</svg>
