<svg width="60" height="60" viewBox="0 0 60 60" fill="none" xmlns="http://www.w3.org/2000/svg">
<path d="M18.75 30L13.74 36.68C13.04 37.6132 12.6883 38.7617 12.7459 39.9269C12.8034 41.092 13.2665 42.2003 14.055 43.06L23.515 53.38C24.46 54.4125 25.795 55 27.1975 55H38.75C44.75 55 48.75 50 48.75 45V23.5725C48.75 17.8575 41.25 17.8575 41.25 23.5725V25" stroke="#EF4918" stroke-width="3" stroke-linecap="round" stroke-linejoin="round"/>
<path d="M41.25 25V20.715C41.25 15 33.75 15 33.75 20.715V25V18.75C33.75 13.035 26.25 13.035 26.25 18.75V25V8.7475C26.2493 7.75337 25.854 6.80019 25.1508 6.09747C24.4476 5.39474 23.4941 5 22.5 5C21.5054 5 20.5516 5.39509 19.8483 6.09835C19.1451 6.80161 18.75 7.75544 18.75 8.75V37.5" stroke="#EF4918" stroke-width="3" stroke-linecap="round" stroke-linejoin="round"/>
</svg>
